<?xml version="1.0" encoding="UTF-8" standalone="no"?>
<!-- Created with Inkscape (http://www.inkscape.org/) -->

<svg
   xmlns:dc="http://purl.org/dc/elements/1.1/"
   xmlns:cc="http://creativecommons.org/ns#"
   xmlns:rdf="http://www.w3.org/1999/02/22-rdf-syntax-ns#"
   xmlns:svg="http://www.w3.org/2000/svg"
   xmlns="http://www.w3.org/2000/svg"
   xmlns:sodipodi="http://sodipodi.sourceforge.net/DTD/sodipodi-0.dtd"
   xmlns:inkscape="http://www.inkscape.org/namespaces/inkscape"
   id="svg3090"
   sodipodi:docname="bluerabbit.svg"
   viewBox="0 0 320.15 346.51"
   version="1.1"
   inkscape:version="0.91 r13725">
  <defs
     id="defs3436" />
  <sodipodi:namedview
     id="base"
     bordercolor="#666666"
     inkscape:pageshadow="2"
     inkscape:window-y="14"
     fit-margin-left="0"
     pagecolor="#ffffff"
     fit-margin-top="0"
     inkscape:window-maximized="0"
     inkscape:zoom="7.525"
     inkscape:window-x="0"
     inkscape:window-height="886"
     showgrid="false"
     borderopacity="1.0"
     inkscape:current-layer="g3298"
     inkscape:cx="200.8182"
     inkscape:cy="22.736365"
     fit-margin-right="0"
     fit-margin-bottom="0"
     inkscape:window-width="1440"
     inkscape:pageopacity="0.0"
     inkscape:document-units="px" />
  <g
     id="layer1"
     inkscape:label="Layer 1"
     inkscape:groupmode="layer"
     transform="translate(-214.07 -355.53)">
    <g
       id="g3298"
       transform="matrix(.99497 -.10017 .10017 .99497 -63.563 36.202)">
      <path
         id="path4133"
         sodipodi:nodetypes="sssss"
         style="fill:#0197fd"
         inkscape:connector-curvature="0"
         d="m412.27 447.67c6.3896 42.552-5.6816 79.637-26.962 82.833-21.28 3.1954-43.711-28.709-50.1-71.261-6.3896-42.552-1.7112-98.716 19.569-101.91 21.28-3.1954 51.104 47.788 57.493 90.34z" />
      <path
         id="path3829"
         d="m405.6 449.12c4.7448 42.766-8.7468 79.359-30.134 81.732-21.387 2.3729-42.572-30.373-47.317-73.139-4.7448-42.766 2.0948-98.709 23.482-101.08 21.387-2.3729 49.224 49.722 53.969 92.489z"
         sodipodi:nodetypes="sssss"
         style="fill:#33b5e5"
         inkscape:connector-curvature="0" />
      <path
         id="path3850"
         d="m390.9 461.33c3.3244 29.964-6.719 57.311-17.65 58.524-10.931 1.2128-22.488-22.095-25.812-52.059-3.3244-29.964-1.8483-71.855 7.7353-66.458 17.06 9.606 32.403 30.029 35.727 59.994z"
         sodipodi:nodetypes="sssss"
         style="fill:#b3defd"
         inkscape:connector-curvature="0" />
      <path
         id="path4153"
         sodipodi:nodetypes="sssss"
         style="fill:#0197fd"
         inkscape:connector-curvature="0"
         d="m498.81 415.91c-28.641 15.604-58.932 60.763-67.657 100.87-8.7242 40.103 7.4219 59.964 36.063 44.36s56.916-48.285 65.64-88.388c8.7242-40.103-5.4054-72.441-34.047-56.838z" />
      <path
         id="path3829-1"
         d="m495.01 413.23c-28.641 15.604-58.932 60.763-67.657 100.87-8.7242 40.103 7.4219 59.964 36.063 44.36s56.916-48.285 65.64-88.388c8.7242-40.103-5.4054-72.441-34.047-56.838z"
         sodipodi:nodetypes="sssss"
         style="fill:#33b5e5"
         inkscape:connector-curvature="0" />
      <path
         id="path3850-6"
         d="m497.14 499.52c-20.73 27.208-44.973 64.547-54.826 59.66-9.8526-4.8878-5.5167-33.691 9.6847-64.333s57.912-63.752 67.764-58.864c9.8527 4.8878-3.9095 38.976-22.623 63.538z"
         sodipodi:nodetypes="sssss"
         style="fill:#b3defd"
         inkscape:connector-curvature="0" />
      <path
         id="path3763"
         d="m492.33 612.35c13.517 76.54-21.531 101.52-114.7 94.768-77.695-5.6297-126.58-42.603-110.6-96.04 24.106-80.614 55.773-99.167 111.91-91.381 71.762 9.9521 103.29 35.477 113.39 92.653z"
         sodipodi:nodetypes="sssss"
         style="fill:#0197fd"
         inkscape:connector-curvature="0" />
      <path
         id="path4131"
         sodipodi:nodetypes="sssss"
         style="fill:#33b5e5"
         inkscape:connector-curvature="0"
         d="m490.13 605.18c13.517 76.54-21.531 101.52-114.7 94.768-77.695-5.6297-126.58-42.603-110.6-96.04 24.106-80.614 55.773-99.167 111.91-91.381 71.762 9.9521 103.29 35.477 113.39 92.653z" />
      <path
         id="path3766"
         sodipodi:rx="32.613495"
         sodipodi:ry="31.747652"
         style="fill:#ffffff"
         sodipodi:type="arc"
         d="m 439.84927,398.93781 a 32.613495,31.747652 0 0 1 -32.61349,31.74765 32.613495,31.747652 0 0 1 -32.6135,-31.74765 32.613495,31.747652 0 0 1 32.6135,-31.74766 32.613495,31.747652 0 0 1 32.61349,31.74766 z"
         transform="matrix(.68404 .066160 -.068628 .70955 54.655 299.38)"
         sodipodi:cy="398.93781"
         sodipodi:cx="407.23578" />
      <path
         id="path3766-2"
         sodipodi:rx="32.613495"
         sodipodi:ry="31.747652"
         style="fill:#000000"
         sodipodi:type="arc"
         d="m 439.84927,398.93781 a 32.613495,31.747652 0 0 1 -32.61349,31.74765 32.613495,31.747652 0 0 1 -32.6135,-31.74765 32.613495,31.747652 0 0 1 32.6135,-31.74766 32.613495,31.747652 0 0 1 32.61349,31.74766 z"
         transform="matrix(.48453 .046864 -.049972 .51667 130.18 386.69)"
         sodipodi:cy="398.93781"
         sodipodi:cx="407.23578" />
      <path
         id="path3827"
         d="m393.31 629.39c-0.88242 9.1234-12.315 16.446-23.889 15.327-11.574-1.1194-18.907-10.257-18.025-19.381 0.88242-9.1234 9.86-7.8545 21.395-6.3288s21.401 1.2592 20.518 10.383z"
         sodipodi:nodetypes="ssszs"
         style="fill:#0169c9"
         inkscape:connector-curvature="0" />
      <path
         id="path3902"
         d="m368 664.49c9.7958 7.461 26.743 19.035 33.639-14.507"
         sodipodi:nodetypes="cc"
         style="stroke:#000000;stroke-linecap:round;stroke-miterlimit:1.3;stroke-width:3.4;fill:none"
         inkscape:connector-curvature="0" />
      <path
         id="path4024"
         d="m328.66 652.29c-0.73786 7.6288-7.7022 13.197-15.555 12.438-7.8532-0.75956-13.621-7.5596-12.883-15.188 0.73786-7.6288 7.2174-12.424 15.071-11.665 7.8531 0.75956 14.106 6.7864 13.368 14.415z"
         sodipodi:nodetypes="sssss"
         style="fill:#b3defd"
         inkscape:connector-curvature="0" />
      <path
         id="path4024-3"
         d="m441.57 663.62c-0.73786 7.6288-7.7022 13.197-15.555 12.438-7.8531-0.75956-13.621-7.5596-12.883-15.188 0.73786-7.6288 7.2174-12.424 15.071-11.665 7.8531 0.75956 14.106 6.7864 13.368 14.415z"
         sodipodi:nodetypes="sssss"
         style="fill:#b3defd"
         inkscape:connector-curvature="0" />
      <path
         id="path3766-6"
         sodipodi:rx="32.613495"
         sodipodi:ry="31.747652"
         style="fill:#ffffff"
         sodipodi:type="arc"
         d="m 439.84927,398.93781 a 32.613495,31.747652 0 0 1 -32.61349,31.74765 32.613495,31.747652 0 0 1 -32.6135,-31.74765 32.613495,31.747652 0 0 1 32.6135,-31.74766 32.613495,31.747652 0 0 1 32.61349,31.74766 z"
         transform="matrix(.68404 .066160 -.068628 .70955 200.19 311.51)"
         sodipodi:cy="398.93781"
         sodipodi:cx="407.23578" />
      <path
         id="path3766-2-2"
         sodipodi:rx="32.613495"
         sodipodi:ry="31.747652"
         style="fill:#000000"
         sodipodi:type="arc"
         d="m 439.84927,398.93781 a 32.613495,31.747652 0 0 1 -32.61349,31.74765 32.613495,31.747652 0 0 1 -32.6135,-31.74765 32.613495,31.747652 0 0 1 32.6135,-31.74766 32.613495,31.747652 0 0 1 32.61349,31.74766 z"
         transform="matrix(.50321 .048671 -.054304 .56145 268.01 380.36)"
         sodipodi:cy="398.93781"
         sodipodi:cx="407.23578" />
      <path
         id="path4161"
         d="m274.15 637.8c-21.113-6.4012-38.091-7.9675-54.981-16.346"
         sodipodi:nodetypes="cc"
         style="stroke:#000000;stroke-linecap:round;stroke-width:2.004;fill:none"
         inkscape:connector-curvature="0" />
      <path
         id="path4161-8"
         d="m272.87 643.34c-22.025-1.2812-38.898 1.1704-57.28-3.022"
         sodipodi:nodetypes="cc"
         style="stroke:#000000;stroke-linecap:round;stroke-width:2.004;fill:none"
         inkscape:connector-curvature="0" />
      <path
         id="path4161-8-6"
         sodipodi:nodetypes="cc"
         d="m276.76 649.49c-21.595 4.5172-37.241 11.292-56.08 12.047"
         inkscape:transform-center-x="14.513255"
         inkscape:transform-center-y="-7.2246641"
         inkscape:connector-curvature="0"
         style="stroke:#000000;stroke-linecap:round;stroke-width:2.004;fill:none" />
      <path
         id="path4161-9"
         d="m469.68 653.96c22.621 2.8356 40.426-0.11032 58.872 6.9124"
         sodipodi:nodetypes="cc"
         style="stroke:#000000;stroke-linecap:round;stroke-width:2.4941;fill:none"
         inkscape:connector-curvature="0" />
      <path
         id="path4161-8-8"
         d="m467.53 658.44c24.46 7.7557 44.71 9.5436 63.75 19.795"
         sodipodi:nodetypes="cc"
         style="stroke:#000000;stroke-linecap:round;stroke-width:2.4532;fill:none"
         inkscape:connector-curvature="0" />
      <path
         id="path4161-8-6-6"
         sodipodi:nodetypes="cc"
         d="m460.18 664.53c23.599 7.8535 40.029 16.432 61.226 20.656"
         inkscape:transform-center-x="-16.709169"
         inkscape:transform-center-y="-6.0929072"
         inkscape:connector-curvature="0"
         style="stroke:#000000;stroke-linecap:round;stroke-width:1.9746;fill:none" />
      <path
         style="color:#000000;display:inline;overflow:visible;visibility:visible;fill:#000000;fill-rule:evenodd;stroke:#000000;stroke-width:1;stroke-linecap:butt;stroke-linejoin:miter;stroke-miterlimit:4;stroke-dasharray:none;stroke-dashoffset:0;stroke-opacity:1;marker:none;marker-start:none;marker-mid:none;marker-end:none;enable-background:accumulate"
         d="m 276.00761,587.25141 c -0.74023,8.31607 0.8438,27.20807 6.81461,36.19979 6.68,7.81154 17.74716,10.48823 32.8096,8.06557 21.17576,-14.51801 14.79628,-38.92598 14.81781,-48.7897 z"
         id="path3448"
         inkscape:connector-curvature="0"
         sodipodi:nodetypes="ccccc" />
    </g>
  </g>
  <metadata
     id="metadata3434">
    <rdf:RDF>
      <cc:Work>
        <dc:format>image/svg+xml</dc:format>
        <dc:type
           rdf:resource="http://purl.org/dc/dcmitype/StillImage" />
        <cc:license
           rdf:resource="http://creativecommons.org/licenses/publicdomain/" />
        <dc:publisher>
          <cc:Agent
             rdf:about="http://openclipart.org/">
            <dc:title>Openclipart</dc:title>
          </cc:Agent>
        </dc:publisher>
      </cc:Work>
      <cc:License
         rdf:about="http://creativecommons.org/licenses/publicdomain/">
        <cc:permits
           rdf:resource="http://creativecommons.org/ns#Reproduction" />
        <cc:permits
           rdf:resource="http://creativecommons.org/ns#Distribution" />
        <cc:permits
           rdf:resource="http://creativecommons.org/ns#DerivativeWorks" />
      </cc:License>
    </rdf:RDF>
  </metadata>
</svg>
