<?xml version="1.0" encoding="UTF-8" standalone="no"?>
<!-- Created with Inkscape (http://www.inkscape.org/) -->

<svg
   xmlns:dc="http://purl.org/dc/elements/1.1/"
   xmlns:cc="http://creativecommons.org/ns#"
   xmlns:rdf="http://www.w3.org/1999/02/22-rdf-syntax-ns#"
   xmlns:svg="http://www.w3.org/2000/svg"
   xmlns="http://www.w3.org/2000/svg"
   xmlns:sodipodi="http://sodipodi.sourceforge.net/DTD/sodipodi-0.dtd"
   xmlns:inkscape="http://www.inkscape.org/namespaces/inkscape"
   id="svg3090"
   sodipodi:docname="piratebunny.svg"
   viewBox="0 0 350.00001 349.99999"
   version="1.1"
   inkscape:version="0.91 r13725"
   width="350"
   height="350"
   inkscape:export-filename="/home/craig/pyconuk2015/sprint/patch/graphics/piratebunny2.png"
   inkscape:export-xdpi="36"
   inkscape:export-ydpi="36"
   enable-background="new">
  <defs
     id="defs3436" />
  <sodipodi:namedview
     id="base"
     bordercolor="#666666"
     inkscape:pageshadow="2"
     inkscape:window-y="14"
     fit-margin-left="0"
     pagecolor="#ffffff"
     fit-margin-top="0"
     inkscape:window-maximized="0"
     inkscape:zoom="2.7997638"
     inkscape:window-x="0"
     inkscape:window-height="886"
     showgrid="false"
     borderopacity="1.0"
     inkscape:current-layer="layer3"
     inkscape:cx="106.67042"
     inkscape:cy="114.12852"
     fit-margin-right="0"
     fit-margin-bottom="0"
     inkscape:window-width="1440"
     inkscape:pageopacity="0.0"
     inkscape:document-units="px"
     inkscape:snap-page="true"
     showguides="true"
     inkscape:guide-bbox="true" />
  <g
     id="layer1"
     inkscape:label="Layer 1"
     inkscape:groupmode="layer"
     transform="translate(-214.07,-352.04001)"
     style="display:inline">
    <g
       inkscape:groupmode="layer"
       id="layer5"
       inkscape:label="ears 3"
       style="display:none">
      <path
         transform="matrix(0.99497,-0.10017,0.10017,0.99497,-63.563,36.202)"
         id="path14634"
         sodipodi:nodetypes="sssss"
         style="display:inline;fill:#0197fd"
         inkscape:connector-curvature="0"
         d="m 427.29313,447.42833 c 6.3896,42.552 -5.6816,79.637 -26.96199,82.833 -21.28,3.1954 -43.71101,-28.709 -50.10001,-71.261 -6.38959,-42.552 -1.7112,-98.716 19.569,-101.91 21.28001,-3.1954 51.104,47.788 57.493,90.34 z" />
      <path
         transform="matrix(0.99497,-0.10017,0.10017,0.99497,-63.563,36.202)"
         id="path14636"
         d="m 420.62314,448.87833 c 4.7448,42.766 -8.7468,79.359 -30.134,81.732 -21.387,2.3729 -42.572,-30.373 -47.317,-73.139 -4.7448,-42.766 2.0948,-98.709 23.48199,-101.08 21.387,-2.3729 49.224,49.722 53.969,92.489 z"
         sodipodi:nodetypes="sssss"
         style="display:inline;fill:#33b5e5"
         inkscape:connector-curvature="0" />
      <path
         transform="matrix(0.99497,-0.10017,0.10017,0.99497,-63.563,36.202)"
         id="path14638"
         d="m 405.92313,461.08833 c 3.32441,29.964 -6.719,57.311 -17.64999,58.524 -10.931,1.2128 -22.488,-22.095 -25.812,-52.059 -3.32441,-29.964 -1.8483,-71.855 7.73529,-66.458 17.06,9.606 32.40301,30.029 35.727,59.994 z"
         sodipodi:nodetypes="sssss"
         style="display:inline;fill:#ffeeaa"
         inkscape:connector-curvature="0" />
      <path
         transform="matrix(0.99497,-0.10017,0.10017,0.99497,-63.563,36.202)"
         id="path14640"
         sodipodi:nodetypes="sssss"
         style="display:inline;fill:#0197fd"
         inkscape:connector-curvature="0"
         d="m 513.83313,415.66833 c -28.641,15.604 -58.932,60.763 -67.65699,100.87 -8.7242,40.103 7.4219,59.964 36.063,44.36 28.6411,-15.604 56.916,-48.285 65.64,-88.388 8.7242,-40.103 -5.4054,-72.441 -34.04701,-56.838 z" />
      <path
         transform="matrix(0.99497,-0.10017,0.10017,0.99497,-63.563,36.202)"
         id="path14642"
         d="m 510.03314,412.98833 c -28.64101,15.604 -58.93201,60.763 -67.657,100.87 -8.7242,40.103 7.4219,59.964 36.063,44.36 28.6411,-15.604 56.916,-48.285 65.64,-88.388 8.7242,-40.103 -5.4054,-72.441 -34.047,-56.838 z"
         sodipodi:nodetypes="sssss"
         style="display:inline;fill:#33b5e5"
         inkscape:connector-curvature="0" />
      <path
         transform="matrix(0.99497,-0.10017,0.10017,0.99497,-63.563,36.202)"
         id="path14644"
         d="m 512.16313,499.27833 c -20.73,27.208 -44.973,64.547 -54.826,59.66 -9.8526,-4.8878 -5.5167,-33.691 9.6847,-64.333 15.2014,-30.642 57.912,-63.752 67.76401,-58.864 9.8527,4.8878 -3.9095,38.976 -22.62301,63.538 z"
         sodipodi:nodetypes="sssss"
         style="display:inline;fill:#ffeeaa"
         inkscape:connector-curvature="0" />
    </g>
    <g
       inkscape:groupmode="layer"
       id="layer4"
       inkscape:label="ears 2"
       style="display:none">
      <path
         d="m 513.83313,415.66833 c -28.641,15.604 -58.932,60.763 -67.65699,100.87 -8.7242,40.103 7.4219,59.964 36.063,44.36 28.6411,-15.604 56.916,-48.285 65.64,-88.388 8.7242,-40.103 -5.4054,-72.441 -34.04701,-56.838 z"
         inkscape:connector-curvature="0"
         style="display:inline;fill:#0197fd"
         sodipodi:nodetypes="sssss"
         id="path14622"
         transform="matrix(0.99497,-0.10017,0.10017,0.99497,-63.563,36.202)" />
      <path
         inkscape:connector-curvature="0"
         style="display:inline;fill:#33b5e5"
         sodipodi:nodetypes="sssss"
         d="m 510.03314,412.98833 c -28.64101,15.604 -58.93201,60.763 -67.657,100.87 -8.7242,40.103 7.4219,59.964 36.063,44.36 28.6411,-15.604 56.916,-48.285 65.64,-88.388 8.7242,-40.103 -5.4054,-72.441 -34.047,-56.838 z"
         id="path14624"
         transform="matrix(0.99497,-0.10017,0.10017,0.99497,-63.563,36.202)" />
      <path
         inkscape:connector-curvature="0"
         style="display:inline;fill:#ffeeaa"
         sodipodi:nodetypes="sssss"
         d="m 512.16313,499.27833 c -20.73,27.208 -44.973,64.547 -54.826,59.66 -9.8526,-4.8878 -5.5167,-33.691 9.6847,-64.333 15.2014,-30.642 57.912,-63.752 67.76401,-58.864 9.8527,4.8878 -3.9095,38.976 -22.62301,63.538 z"
         id="path14626"
         transform="matrix(0.99497,-0.10017,0.10017,0.99497,-63.563,36.202)" />
      <path
         style="display:inline;fill:#0197fd"
         d="m 113.9082,92.738281 c 0.86385,4.447316 1.83258,8.817529 2.90625,13.033199 10.6193,41.69797 36.13345,71.19376 56.98633,65.88282 18.51066,-4.71491 27.11247,-35.2755 21.38672,-71.2461 l -81.2793,-7.669919 z"
         transform="translate(214.07,352.04001)"
         id="path14616"
         inkscape:connector-curvature="0" />
      <path
         style="display:inline;fill:#33b5e5"
         d="m 107.2793,92.113281 c 0.68165,4.377055 1.46869,8.681959 2.35937,12.843749 9.005,42.07558 33.36257,72.53455 54.4043,68.03125 19.17721,-4.10433 28.97563,-35.83461 23.74609,-73.277342 L 107.2793,92.113281 Z"
         transform="translate(214.07,352.04001)"
         id="path14618"
         inkscape:connector-curvature="0" />
      <path
         style="display:inline;fill:#ffeeaa"
         d="m 126.50977,93.927734 c 0.91164,6.558386 2.04025,13.102086 3.33007,19.128906 6.30877,29.48032 20.14196,51.5126 30.89649,49.21094 10.75427,-2.30181 18.0077,-30.51651 11.69922,-59.9961 -0.29826,-1.39373 -0.62828,-2.75567 -0.97461,-4.101558 l -44.95117,-4.242188 z"
         transform="translate(214.07,352.04001)"
         id="path14620"
         inkscape:connector-curvature="0" />
    </g>
    <g
       inkscape:groupmode="layer"
       id="layer2"
       inkscape:label="ears 1"
       style="display:inline">
      <path
         transform="matrix(0.99497,-0.10017,0.10017,0.99497,-63.563,36.202)"
         id="path4133"
         sodipodi:nodetypes="sssss"
         style="fill:#0197fd"
         inkscape:connector-curvature="0"
         d="m 427.29313,447.42833 c 6.3896,42.552 -5.6816,79.637 -26.96199,82.833 -21.28,3.1954 -43.71101,-28.709 -50.10001,-71.261 -6.38959,-42.552 -1.7112,-98.716 19.569,-101.91 21.28001,-3.1954 51.104,47.788 57.493,90.34 z" />
      <path
         transform="matrix(0.99497,-0.10017,0.10017,0.99497,-63.563,36.202)"
         id="path3829"
         d="m 420.62314,448.87833 c 4.7448,42.766 -8.7468,79.359 -30.134,81.732 -21.387,2.3729 -42.572,-30.373 -47.317,-73.139 -4.7448,-42.766 2.0948,-98.709 23.48199,-101.08 21.387,-2.3729 49.224,49.722 53.969,92.489 z"
         sodipodi:nodetypes="sssss"
         style="fill:#33b5e5"
         inkscape:connector-curvature="0" />
      <path
         transform="matrix(0.99497,-0.10017,0.10017,0.99497,-63.563,36.202)"
         id="path3850"
         d="m 405.92313,461.08833 c 3.32441,29.964 -6.719,57.311 -17.64999,58.524 -10.931,1.2128 -22.488,-22.095 -25.812,-52.059 -3.32441,-29.964 -1.8483,-71.855 7.73529,-66.458 17.06,9.606 32.40301,30.029 35.727,59.994 z"
         sodipodi:nodetypes="sssss"
         style="fill:#ffeeaa"
         inkscape:connector-curvature="0" />
      <path
         transform="matrix(0.99497,-0.10017,0.10017,0.99497,-63.563,36.202)"
         id="path4153"
         sodipodi:nodetypes="sssss"
         style="fill:#0197fd"
         inkscape:connector-curvature="0"
         d="m 513.83313,415.66833 c -28.641,15.604 -58.932,60.763 -67.65699,100.87 -8.7242,40.103 7.4219,59.964 36.063,44.36 28.6411,-15.604 56.916,-48.285 65.64,-88.388 8.7242,-40.103 -5.4054,-72.441 -34.04701,-56.838 z" />
      <path
         transform="matrix(0.99497,-0.10017,0.10017,0.99497,-63.563,36.202)"
         id="path3829-1"
         d="m 510.03314,412.98833 c -28.64101,15.604 -58.93201,60.763 -67.657,100.87 -8.7242,40.103 7.4219,59.964 36.063,44.36 28.6411,-15.604 56.916,-48.285 65.64,-88.388 8.7242,-40.103 -5.4054,-72.441 -34.047,-56.838 z"
         sodipodi:nodetypes="sssss"
         style="fill:#33b5e5"
         inkscape:connector-curvature="0" />
      <path
         transform="matrix(0.99497,-0.10017,0.10017,0.99497,-63.563,36.202)"
         id="path3850-6"
         d="m 512.16313,499.27833 c -20.73,27.208 -44.973,64.547 -54.826,59.66 -9.8526,-4.8878 -5.5167,-33.691 9.6847,-64.333 15.2014,-30.642 57.912,-63.752 67.76401,-58.864 9.8527,4.8878 -3.9095,38.976 -22.62301,63.538 z"
         sodipodi:nodetypes="sssss"
         style="fill:#ffeeaa"
         inkscape:connector-curvature="0" />
    </g>
    <g
       inkscape:groupmode="layer"
       id="layer3"
       inkscape:label="head"
       style="display:inline">
      <g
         style="display:inline"
         id="g3298"
         transform="matrix(0.99497,-0.10017,0.10017,0.99497,-63.563,36.202)">
        <path
           id="path3763"
           d="m 507.35313,612.10833 c 13.517,76.54 -21.531,101.52 -114.69999,94.768 -77.695,-5.6297 -126.58,-42.603 -110.60001,-96.04 24.106,-80.614 55.77301,-99.167 111.91,-91.381 71.762,9.9521 103.29,35.477 113.39,92.653 z"
           sodipodi:nodetypes="sssss"
           style="fill:#0197fd"
           inkscape:connector-curvature="0" />
        <path
           id="path4131"
           sodipodi:nodetypes="sssss"
           style="fill:#33b5e5"
           inkscape:connector-curvature="0"
           d="m 505.15314,604.93833 c 13.51699,76.54 -21.531,101.52 -114.7,94.768 -77.695,-5.6297 -126.58,-42.603 -110.6,-96.04 24.106,-80.614 55.773,-99.167 111.91,-91.381 71.762,9.9521 103.29,35.477 113.39,92.653 z" />
        <ellipse
           id="path3766"
           style="fill:#ffffff"
           transform="matrix(0.99535523,0.09627025,-0.0962712,0.99535514,0,0)"
           cx="378.01837"
           cy="575.42822"
           rx="22.413038"
           ry="22.631668" />
        <ellipse
           id="path3766-2"
           style="fill:#000000"
           transform="matrix(0.99535513,0.09627128,-0.09627014,0.99535524,0,0)"
           cx="379.97089"
           cy="577.75549"
           rx="15.875958"
           ry="16.479603" />
        <path
           id="path3827"
           d="m 408.33314,629.14833 c -0.88243,9.1234 -12.315,16.446 -23.889,15.327 -11.57401,-1.1194 -18.907,-10.257 -18.025,-19.381 0.88242,-9.1234 9.86,-7.8545 21.395,-6.3288 11.535,1.5257 21.401,1.2592 20.51799,10.383 z"
           sodipodi:nodetypes="ssszs"
           style="fill:#0169c9"
           inkscape:connector-curvature="0" />
        <path
           id="path3902"
           d="m 383.02314,664.24833 c 9.79579,7.461 26.743,19.035 33.639,-14.507"
           sodipodi:nodetypes="cc"
           style="fill:none;stroke:#000000;stroke-width:3.4000001;stroke-linecap:round;stroke-miterlimit:1.29999995"
           inkscape:connector-curvature="0" />
        <path
           id="path4024"
           d="m 343.68314,652.04833 c -0.73786,7.6288 -7.7022,13.197 -15.555,12.438 -7.8532,-0.75956 -13.621,-7.5596 -12.883,-15.188 0.73786,-7.6288 7.2174,-12.424 15.071,-11.665 7.8531,0.75956 14.106,6.7864 13.368,14.415 z"
           sodipodi:nodetypes="sssss"
           style="fill:#ffeeaa"
           inkscape:connector-curvature="0" />
        <path
           id="path4024-3"
           d="m 456.59314,663.37833 c -0.73787,7.6288 -7.7022,13.197 -15.55501,12.438 -7.85309,-0.75956 -13.62099,-7.5596 -12.88299,-15.188 0.73786,-7.6288 7.2174,-12.424 15.071,-11.665 7.8531,0.75956 14.106,6.7864 13.368,14.415 z"
           sodipodi:nodetypes="sssss"
           style="fill:#ffeeaa"
           inkscape:connector-curvature="0" />
        <ellipse
           id="path3766-6"
           style="fill:#ffffff"
           transform="matrix(0.99535523,0.09627025,-0.0962712,0.99535514,0,0)"
           cx="524.04517"
           cy="573.49121"
           rx="22.413038"
           ry="22.631668" />
        <ellipse
           id="path3766-2-2"
           style="fill:#000000"
           transform="matrix(0.99535508,0.09627179,-0.09627173,0.99535509,0,0)"
           cx="524.19452"
           cy="576.13348"
           rx="16.488022"
           ry="17.9079" />
        <path
           id="path4161"
           d="m 289.17313,637.55833 c -21.113,-6.4012 -38.091,-7.9675 -54.981,-16.346"
           sodipodi:nodetypes="cc"
           style="fill:none;stroke:#000000;stroke-width:2.00399995;stroke-linecap:round"
           inkscape:connector-curvature="0" />
        <path
           id="path4161-8"
           d="m 287.89314,643.09833 c -22.02501,-1.2812 -38.89801,1.1704 -57.28001,-3.022"
           sodipodi:nodetypes="cc"
           style="fill:none;stroke:#000000;stroke-width:2.00399995;stroke-linecap:round"
           inkscape:connector-curvature="0" />
        <path
           id="path4161-8-6"
           sodipodi:nodetypes="cc"
           d="m 291.78314,649.24833 c -21.59501,4.5172 -37.24101,11.292 -56.08001,12.047"
           inkscape:transform-center-x="14.513255"
           inkscape:transform-center-y="-7.2246641"
           inkscape:connector-curvature="0"
           style="fill:none;stroke:#000000;stroke-width:2.00399995;stroke-linecap:round" />
        <path
           id="path4161-9"
           d="m 484.70314,653.71833 c 22.62099,2.8356 40.426,-0.11032 58.872,6.9124"
           sodipodi:nodetypes="cc"
           style="fill:none;stroke:#000000;stroke-width:2.49410009;stroke-linecap:round"
           inkscape:connector-curvature="0" />
        <path
           id="path4161-8-8"
           d="m 482.55313,658.19833 c 24.46,7.7557 44.71001,9.5436 63.75,19.795"
           sodipodi:nodetypes="cc"
           style="fill:none;stroke:#000000;stroke-width:2.4532001;stroke-linecap:round"
           inkscape:connector-curvature="0" />
        <path
           id="path4161-8-6-6"
           sodipodi:nodetypes="cc"
           d="m 475.20314,664.28833 c 23.599,7.8535 40.02899,16.432 61.22599,20.656"
           inkscape:transform-center-x="-16.709169"
           inkscape:transform-center-y="-6.0929072"
           inkscape:connector-curvature="0"
           style="fill:none;stroke:#000000;stroke-width:1.97459996;stroke-linecap:round" />
        <path
           style="color:#000000;display:inline;overflow:visible;visibility:visible;fill:#000000;fill-rule:evenodd;stroke:#000000;stroke-width:1;stroke-linecap:butt;stroke-linejoin:miter;stroke-miterlimit:4;stroke-dasharray:none;stroke-dashoffset:0;stroke-opacity:1;marker:none;marker-start:none;marker-mid:none;marker-end:none;enable-background:accumulate"
           d="m 291.03075,587.00974 c -0.74023,8.31607 0.71095,27.29771 6.81461,36.19979 6.07814,8.86486 23.74803,12.08838 35.99036,5.46668 12.24233,-6.62169 11.61552,-36.32709 11.63705,-46.19081 z"
           id="path3448"
           inkscape:connector-curvature="0"
           sodipodi:nodetypes="cszcc" />
      </g>
    </g>
    <g
       inkscape:groupmode="layer"
       id="layer6"
       inkscape:label="ears 2 foreground"
       style="display:none">
      <path
         style="display:inline;fill:#0197fd"
         d="M 107.89453,92.171875 C 89.567901,125.07016 80.835966,165.56199 94.832031,176.47266 c 16.970239,13.23099 60.918249,-22.05243 87.373049,-55.98828 5.13974,-6.59301 9.56047,-13.34808 13.24023,-20.05079 l -87.55078,-8.261715 z"
         id="path14700"
         transform="translate(214.07,352.04001)"
         inkscape:connector-curvature="0" />
    </g>
  </g>
  <metadata
     id="metadata3434">
    <rdf:RDF>
      <cc:Work>
        <dc:format>image/svg+xml</dc:format>
        <dc:type
           rdf:resource="http://purl.org/dc/dcmitype/StillImage" />
        <cc:license
           rdf:resource="http://creativecommons.org/publicdomain/zero/1.0/" />
        <dc:publisher>
          <cc:Agent
             rdf:about="http://openclipart.org/">
            <dc:title>Openclipart</dc:title>
          </cc:Agent>
        </dc:publisher>
        <dc:title></dc:title>
      </cc:Work>
      <cc:License
         rdf:about="http://creativecommons.org/publicdomain/zero/1.0/">
        <cc:permits
           rdf:resource="http://creativecommons.org/ns#Reproduction" />
        <cc:permits
           rdf:resource="http://creativecommons.org/ns#Distribution" />
        <cc:permits
           rdf:resource="http://creativecommons.org/ns#DerivativeWorks" />
      </cc:License>
    </rdf:RDF>
  </metadata>
</svg>
